<svg width="103" height="67" viewBox="0 0 103 67" fill="none" xmlns="http://www.w3.org/2000/svg">
<g clip-path="url(#clip0_143_71131)">
<path d="M90.1575 58.5938C90.1575 59.9236 91.2355 61.0017 92.5654 61.0017C93.8953 61.0017 94.9734 59.9236 94.9734 58.5938C94.9734 57.2639 93.8953 56.1858 92.5654 56.1858C91.2355 56.1858 90.1575 57.2639 90.1575 58.5938Z" fill="#A29BFE"/>
<path d="M98.1841 66.6204C98.1841 67.9503 99.2621 69.0283 100.592 69.0283C101.922 69.0283 103 67.9503 103 66.6204C103 65.2905 101.922 64.2124 100.592 64.2124C99.2621 64.2124 98.1841 65.2905 98.1841 66.6204Z" fill="#A29BFE"/>
<path d="M74.1044 42.5408C74.1044 43.8707 75.1824 44.9487 76.5123 44.9487C77.8422 44.9487 78.9203 43.8707 78.9203 42.5408C78.9203 41.2109 77.8422 40.1328 76.5123 40.1328C75.1824 40.1328 74.1044 41.2109 74.1044 42.5408Z" fill="#A29BFE"/>
<path d="M82.131 50.5674C82.131 51.8973 83.209 52.9754 84.5389 52.9754C85.8688 52.9754 86.9469 51.8973 86.9469 50.5674C86.9469 49.2375 85.8688 48.1594 84.5389 48.1594C83.209 48.1594 82.131 49.2375 82.131 50.5674Z" fill="#A29BFE"/>
<path d="M74.1044 58.5938C74.1044 59.9236 75.1824 61.0017 76.5123 61.0017C77.8422 61.0017 78.9203 59.9236 78.9203 58.5938C78.9203 57.2639 77.8422 56.1858 76.5123 56.1858C75.1824 56.1858 74.1044 57.2639 74.1044 58.5938Z" fill="#A29BFE"/>
<path d="M82.131 66.6204C82.131 67.9503 83.209 69.0283 84.5389 69.0283C85.8688 69.0283 86.9469 67.9503 86.9469 66.6204C86.9469 65.2905 85.8688 64.2124 84.5389 64.2124C83.209 64.2124 82.131 65.2905 82.131 66.6204Z" fill="#A29BFE"/>
<path d="M58.0513 26.4876C58.0513 27.8174 59.1293 28.8955 60.4592 28.8955C61.7891 28.8955 62.8672 27.8174 62.8672 26.4876C62.8672 25.1577 61.7891 24.0796 60.4592 24.0796C59.1293 24.0796 58.0513 25.1577 58.0513 26.4876Z" fill="#A29BFE"/>
<path d="M66.0779 34.5142C66.0779 35.8441 67.1559 36.9221 68.4858 36.9221C69.8157 36.9221 70.8938 35.8441 70.8938 34.5142C70.8938 33.1843 69.8157 32.1062 68.4858 32.1062C67.1559 32.1062 66.0779 33.1843 66.0779 34.5142Z" fill="#A29BFE"/>
<path d="M58.0513 42.5408C58.0513 43.8707 59.1293 44.9487 60.4592 44.9487C61.7891 44.9487 62.8672 43.8707 62.8672 42.5408C62.8672 41.2109 61.7891 40.1328 60.4592 40.1328C59.1293 40.1328 58.0513 41.2109 58.0513 42.5408Z" fill="#A29BFE"/>
<path d="M66.0779 50.5674C66.0779 51.8973 67.1559 52.9754 68.4858 52.9754C69.8157 52.9754 70.8938 51.8973 70.8938 50.5674C70.8938 49.2375 69.8157 48.1594 68.4858 48.1594C67.1559 48.1594 66.0779 49.2375 66.0779 50.5674Z" fill="#A29BFE"/>
<path d="M58.0513 58.5938C58.0513 59.9236 59.1293 61.0017 60.4592 61.0017C61.7891 61.0017 62.8672 59.9236 62.8672 58.5938C62.8672 57.2639 61.7891 56.1858 60.4592 56.1858C59.1293 56.1858 58.0513 57.2639 58.0513 58.5938Z" fill="#A29BFE"/>
<path d="M66.0779 66.6204C66.0779 67.9503 67.1559 69.0283 68.4858 69.0283C69.8157 69.0283 70.8938 67.9503 70.8938 66.6204C70.8938 65.2905 69.8157 64.2124 68.4858 64.2124C67.1559 64.2124 66.0779 65.2905 66.0779 66.6204Z" fill="#A29BFE"/>
<path d="M50.0248 34.5142C50.0248 35.8441 51.1028 36.9221 52.4327 36.9221C53.7626 36.9221 54.8407 35.8441 54.8407 34.5142C54.8407 33.1843 53.7626 32.1062 52.4327 32.1062C51.1028 32.1062 50.0248 33.1843 50.0248 34.5142Z" fill="#A29BFE"/>
<path d="M41.9982 42.5408C41.9982 43.8707 43.0762 44.9487 44.4061 44.9487C45.736 44.9487 46.8141 43.8707 46.8141 42.5408C46.8141 41.2109 45.736 40.1328 44.4061 40.1328C43.0762 40.1328 41.9982 41.2109 41.9982 42.5408Z" fill="#A29BFE"/>
<path d="M50.0248 50.5674C50.0248 51.8973 51.1028 52.9754 52.4327 52.9754C53.7626 52.9754 54.8407 51.8973 54.8407 50.5674C54.8407 49.2375 53.7626 48.1594 52.4327 48.1594C51.1028 48.1594 50.0248 49.2375 50.0248 50.5674Z" fill="#A29BFE"/>
<path d="M41.9982 58.5938C41.9982 59.9236 43.0762 61.0017 44.4061 61.0017C45.736 61.0017 46.8141 59.9236 46.8141 58.5938C46.8141 57.2639 45.736 56.1858 44.4061 56.1858C43.0762 56.1858 41.9982 57.2639 41.9982 58.5938Z" fill="#A29BFE"/>
<path d="M50.0248 66.6204C50.0248 67.9503 51.1028 69.0283 52.4327 69.0283C53.7626 69.0283 54.8407 67.9503 54.8407 66.6204C54.8407 65.2905 53.7626 64.2124 52.4327 64.2124C51.1028 64.2124 50.0248 65.2905 50.0248 66.6204Z" fill="#A29BFE"/>
<path d="M33.9717 50.5674C33.9717 51.8973 35.0497 52.9754 36.3796 52.9754C37.7095 52.9754 38.7876 51.8973 38.7876 50.5674C38.7876 49.2375 37.7095 48.1594 36.3796 48.1594C35.0497 48.1594 33.9717 49.2375 33.9717 50.5674Z" fill="#A29BFE"/>
<path d="M25.9451 58.5938C25.9451 59.9236 27.0231 61.0017 28.353 61.0017C29.6829 61.0017 30.761 59.9236 30.761 58.5938C30.761 57.2639 29.6829 56.1858 28.353 56.1858C27.0231 56.1858 25.9451 57.2639 25.9451 58.5938Z" fill="#A29BFE"/>
<path d="M33.9717 66.6204C33.9717 67.9503 35.0497 69.0283 36.3796 69.0283C37.7095 69.0283 38.7876 67.9503 38.7876 66.6204C38.7876 65.2905 37.7095 64.2124 36.3796 64.2124C35.0497 64.2124 33.9717 65.2905 33.9717 66.6204Z" fill="#A29BFE"/>
<path d="M17.9184 66.6204C17.9184 67.9503 18.9965 69.0283 20.3264 69.0283C21.6563 69.0283 22.7344 67.9503 22.7344 66.6204C22.7344 65.2905 21.6563 64.2124 20.3264 64.2124C18.9965 64.2124 17.9184 65.2905 17.9184 66.6204Z" fill="#A29BFE"/>
</g>
<defs>
<clipPath id="clip0_143_71131">
<rect width="75.2662" height="102.636" fill="white" transform="translate(103) rotate(90)"/>
</clipPath>
</defs>
</svg>
